<?xml version="1.0" encoding="UTF-8" standalone="no"?>
<!-- Created with Inkscape (http://www.inkscape.org/) -->

<svg
   width="100"
   height="100"
   viewBox="0 0 264.58333 264.58333"
   version="1.1"
   id="svg5"
   xml:space="preserve"
   xmlns="http://www.w3.org/2000/svg"
   xmlns:svg="http://www.w3.org/2000/svg"><defs
     id="defs2" /><g
     id="layer4"><path
       style="fill:#0ad128;fill-opacity:1;stroke:none;stroke-width:1;stroke-linecap:butt;stroke-linejoin:miter;stroke-dasharray:none;stroke-opacity:1;paint-order:normal"
       id="path9928"
       d="m 121.80888,114.42092 0.29656,19.53689 -19.52614,-0.71282 -6.781004,18.32475 L 77.848214,143.8514 64.905456,158.48913 50.955689,144.80767 33.599168,153.78149 25.533709,135.98468 6.1075188,138.08261 5.0156534,118.574 -13.856591,113.51271 -7.827401,94.927045 -23.596899,83.390098 -11.260928,68.237473 -21.797921,51.78299 -4.821212,42.109855 -8.7026202,22.960106 10.622029,20.072871 13.920411,0.81413521 32.983099,5.1027368 43.015806,-11.663986 59.242013,-0.77874682 74.654072,-12.789019 85.852357,3.2227465 l 18.709923,-5.6317667 4.65798,18.9758132 19.48091,1.50734 -2.51142,19.377072 17.6209,8.442872 -9.34164,17.161351 13.38109,14.238146 -14.91022,12.627894 7.33408,18.110482 z"
       transform="matrix(0.09474512,1.4852016,-1.4852016,0.09474512,233.90882,32.624605)" /></g><g
     id="layer3"><circle
       style="display:none;fill:#18d87a;fill-opacity:1;stroke:none;stroke-width:16.0243;stroke-dasharray:none;stroke-opacity:1"
       id="path4014"
       cx="140.61813"
       cy="120.97874"
       r="59.209724" /></g><g
     id="layer2"><path
       style="fill:none;fill-opacity:1;stroke:#ffffff;stroke-width:31.744;stroke-linecap:butt;stroke-linejoin:miter;stroke-dasharray:none;stroke-opacity:1;paint-order:normal"
       d="m 74.200231,141.78866 32.886919,31.58763 75.92914,-89.122111"
       id="path166" /></g></svg>
